<svg width="151" height="42" viewBox="0 0 151 42" fill="none" xmlns="http://www.w3.org/2000/svg">
<g clip-path="url(#clip0_4223_72)">
<path d="M13.5299 18.2623C16.1457 18.2623 18.2662 16.1418 18.2662 13.5261C18.2662 10.9103 16.1457 8.78983 13.5299 8.78983C10.9142 8.78983 8.7937 10.9103 8.7937 13.5261C8.7937 16.1418 10.9142 18.2623 13.5299 18.2623Z" fill="#E93223"/>
<path d="M35.5639 18.2623C38.1796 18.2623 40.3001 16.1418 40.3001 13.5261C40.3001 10.9103 38.1796 8.78983 35.5639 8.78983C32.9481 8.78983 30.8276 10.9103 30.8276 13.5261C30.8276 16.1418 32.9481 18.2623 35.5639 18.2623Z" fill="#E93223"/>
<path d="M24.5454 37.5583C27.1612 37.5583 29.2817 35.4378 29.2817 32.822C29.2817 30.2063 27.1612 28.0858 24.5454 28.0858C21.9297 28.0858 19.8092 30.2063 19.8092 32.822C19.8092 35.4378 21.9297 37.5583 24.5454 37.5583Z" fill="#E93223"/>
<path d="M46.8403 13.6304C46.1019 13.4745 45.3318 13.6069 44.6879 14.0006C44.044 14.3942 43.5751 15.0193 43.3773 15.7477C42.8474 17.6358 41.651 19.2679 40.0097 20.3413C38.3685 21.4148 36.3938 21.8569 34.4515 21.5857C32.5092 21.3145 30.7311 20.3484 29.4467 18.8664C28.1622 17.3845 27.4586 15.4871 27.4661 13.526C27.4596 12.4608 27.6647 11.405 28.0695 10.4197C28.4743 9.43438 29.0707 8.53927 29.8241 7.78627C30.8043 6.80495 32.0194 6.09102 33.3538 5.71254C34.0821 5.51479 34.7072 5.04588 35.1009 4.40198C35.4946 3.75808 35.627 2.98796 35.471 2.24954C35.3833 1.86853 35.2195 1.5092 34.9893 1.19313C34.7592 0.877061 34.4675 0.610786 34.1318 0.410309C33.7962 0.209831 33.4234 0.0792888 33.036 0.0265289C32.6486 -0.0262311 32.2546 -0.000119862 31.8775 0.103293C30.4325 0.503724 29.0614 1.13441 27.8171 1.97111L27.7707 2.00301C26.809 2.67358 25.6622 3.02754 24.4899 3.01558C23.3176 3.00362 22.1782 2.62635 21.2304 1.9363L21.1086 1.85509C19.9064 1.07808 18.5916 0.491114 17.2105 0.114895C16.8352 0.0135589 16.4434 -0.0112946 16.0583 0.041811C15.6732 0.0949167 15.3027 0.224898 14.9688 0.424029C14.635 0.62316 14.3445 0.887378 14.1148 1.20098C13.8851 1.51458 13.7207 1.87116 13.6315 2.24954C13.4763 2.9879 13.609 3.75768 14.0026 4.40141C14.3962 5.04514 15.0208 5.51417 15.7488 5.71254C17.0842 6.09057 18.3004 6.80452 19.2814 7.78627C20.1629 8.66496 20.8306 9.73451 21.233 10.9123C21.6355 12.0901 21.7617 13.3447 21.6022 14.579C21.4426 15.8134 21.0014 16.9946 20.3127 18.0314C19.624 19.0681 18.7063 19.9327 17.6303 20.5583C16.5543 21.1839 15.3489 21.5539 14.1072 21.6395C12.8655 21.7252 11.6207 21.5243 10.469 21.0524C9.3173 20.5804 8.28948 19.8501 7.46494 18.9177C6.6404 17.9854 6.04121 16.8759 5.71363 15.6752C5.50979 14.9313 5.01881 14.299 4.3487 13.9171C3.6786 13.5353 2.88426 13.4353 2.14042 13.6391C1.39659 13.843 0.764201 14.334 0.382371 15.0041C0.000540818 15.6742 -0.0994518 16.4685 0.10439 17.2124C0.630262 19.125 1.55881 20.9033 2.82783 22.4279C4.09685 23.9525 5.67704 25.1883 7.46253 26.0526C8.50217 26.5401 9.36765 27.3342 9.94265 28.3281C10.5176 29.3221 10.7746 30.4682 10.679 31.6125C10.6442 32.0127 10.6268 32.4188 10.6268 32.8277C10.6276 35.2419 11.2552 37.6144 12.4482 39.7131C12.6443 40.058 12.9091 40.359 13.2262 40.5974C13.5433 40.8359 13.9059 41.0067 14.2917 41.0994C14.6774 41.1921 15.0781 41.2047 15.4689 41.1364C15.8597 41.068 16.2324 40.9202 16.5638 40.7021C17.1772 40.2802 17.6093 39.6429 17.7743 38.9169C17.9392 38.1909 17.825 37.4294 17.4542 36.7838C16.7638 35.5478 16.4085 34.1528 16.4236 32.7371C16.4386 31.3214 16.8235 29.9343 17.5401 28.7133C18.2567 27.4923 19.28 26.4798 20.5086 25.7763C21.7371 25.0728 23.1283 24.7026 24.544 24.7026C25.9598 24.7026 27.3509 25.0728 28.5795 25.7763C29.8081 26.4798 30.8314 27.4923 31.548 28.7133C32.2645 29.9343 32.6494 31.3214 32.6645 32.7371C32.6796 34.1528 32.3243 35.5478 31.6339 36.7838C31.2697 37.4175 31.1532 38.1637 31.3069 38.8782C31.4606 39.5928 31.8737 40.225 32.4663 40.6528C32.797 40.8829 33.172 41.0415 33.5675 41.1186C33.9629 41.1957 34.37 41.1896 34.7629 41.1007C35.1559 41.0117 35.526 40.8419 35.8496 40.602C36.1733 40.3621 36.4434 40.0574 36.6428 39.7073C37.8358 37.6086 38.4634 35.2361 38.4642 32.8219C38.4642 32.413 38.4468 32.007 38.412 31.6067C38.3178 30.4637 38.5751 29.3193 39.1494 28.3266C39.7237 27.334 40.5877 26.5405 41.6255 26.0526C43.0248 25.3764 44.2996 24.4684 45.396 23.3669C47.1057 21.661 48.343 19.5402 48.9866 17.2124C49.0882 16.8361 49.1129 16.4432 49.0593 16.0571C49.0057 15.671 48.8748 15.2997 48.6745 14.9654C48.4741 14.6311 48.2085 14.3405 47.8933 14.1112C47.5782 13.8818 47.2201 13.7183 46.8403 13.6304Z" fill="#E93223"/>
<path d="M65.794 29.9328C64.9229 29.9432 64.0596 29.7672 63.262 29.4165C62.5012 29.0735 61.8175 28.5803 61.2521 27.9664C60.0915 26.7235 59.4493 25.0843 59.4568 23.3838C59.4429 22.2496 59.7184 21.1306 60.2573 20.1326C60.7759 19.1671 61.5455 18.3595 62.4847 17.7949C63.4815 17.2033 64.6236 16.902 65.7824 16.9248C66.8793 16.9043 67.9607 17.1852 68.909 17.7369C69.786 18.2482 70.4869 19.0138 70.9189 19.9324L69.3179 20.4342C68.9734 19.7993 68.4567 19.2745 67.8272 18.9202C67.1807 18.5551 66.4494 18.367 65.707 18.375C64.8893 18.3685 64.087 18.597 63.3955 19.0333C62.6956 19.4709 62.1235 20.0851 61.7365 20.8141C61.3266 21.6103 61.1128 22.4928 61.1128 23.3882C61.1128 24.2836 61.3266 25.1661 61.7365 25.9622C62.1319 26.7052 62.706 27.3381 63.4071 27.8039C64.0895 28.2561 64.8913 28.4944 65.7099 28.4884C66.2521 28.4902 66.7899 28.3919 67.2964 28.1984C67.7849 28.0177 68.2369 27.7505 68.6306 27.4095C68.9781 27.1259 69.2419 26.7529 69.3933 26.3306L71.0175 26.8178C70.7763 27.4325 70.3926 27.9812 69.898 28.4188C69.3593 28.9044 68.7334 29.2833 68.0534 29.5354C67.3305 29.8033 66.565 29.9379 65.794 29.9328Z" fill="#222222"/>
<path d="M77.523 29.9328C76.6604 29.9421 75.8058 29.766 75.0171 29.4166C74.265 29.0816 73.5883 28.5982 73.0275 27.9954C72.4697 27.3912 72.0299 26.6878 71.731 25.9217C71.4246 25.134 71.2692 24.2957 71.2728 23.4506C71.2663 22.5901 71.4217 21.7361 71.731 20.9331C72.0312 20.1652 72.4763 19.4621 73.042 18.8623C73.6062 18.2588 74.2857 17.7746 75.0403 17.4382C75.8298 17.0878 76.6853 16.9108 77.5491 16.9191C78.4102 16.9093 79.2632 17.0864 80.0492 17.4382C80.7995 17.7776 81.4755 18.2615 82.0388 18.8623C82.6027 19.463 83.0467 20.1659 83.3469 20.9331C83.6575 21.7357 83.813 22.59 83.8051 23.4506C83.8103 24.2959 83.6548 25.1345 83.3469 25.9217C83.048 26.6878 82.6082 27.3912 82.0504 27.9954C81.4751 28.6179 80.7751 29.1121 79.9961 29.4459C79.217 29.7798 78.3763 29.9457 77.5288 29.9328H77.523ZM72.9434 23.4767C72.9326 24.3611 73.1451 25.234 73.5611 26.0145C73.9485 26.7503 74.5214 27.3722 75.223 27.8185C75.9094 28.2572 76.7085 28.4869 77.523 28.4798C78.3402 28.4874 79.1414 28.2533 79.8259 27.8069C80.532 27.3462 81.1082 26.7121 81.4994 25.9652C81.9126 25.181 82.1286 24.308 82.1286 23.4216C82.1286 22.5352 81.9126 21.6622 81.4994 20.878C81.1058 20.1359 80.5299 19.5061 79.8259 19.0479C79.1414 18.6015 78.3402 18.3674 77.523 18.375C76.707 18.3678 75.9084 18.6107 75.2346 19.0711C74.5182 19.5588 73.934 20.2165 73.5341 20.9853C73.1342 21.7542 72.9313 22.6102 72.9434 23.4767Z" fill="#222222"/>
<path d="M85.2698 12H86.9172V26.9193C86.9172 27.5535 87.0303 27.9683 87.2565 28.1636C87.4861 28.3582 87.7793 28.4615 88.0802 28.4536C88.373 28.4537 88.6649 28.4206 88.9503 28.355C89.2403 28.2912 89.4927 28.2274 89.7015 28.1636L89.9915 29.4948C89.6291 29.6411 89.2517 29.7471 88.8662 29.8109C88.4838 29.8852 88.0955 29.925 87.7061 29.9299C87.3784 29.953 87.0497 29.9051 86.7422 29.7896C86.4347 29.674 86.1558 29.4935 85.9246 29.2603C85.6933 29.0271 85.515 28.7467 85.402 28.4383C85.289 28.1299 85.2439 27.8007 85.2698 27.4733V12Z" fill="#222222"/>
<path d="M95.8212 29.9328C94.9781 29.9421 94.1423 29.7745 93.368 29.4408C92.5937 29.1071 91.8979 28.6147 91.3257 27.9954C90.7669 27.3918 90.3271 26.6883 90.0292 25.9216C89.7203 25.1346 89.5638 24.296 89.5681 23.4505C89.5611 22.5898 89.7176 21.7355 90.0292 20.933C90.3274 20.1648 90.7716 19.4615 91.3373 18.8622C91.9021 18.2594 92.5815 17.7753 93.3356 17.4381C94.1252 17.088 94.9807 16.911 95.8444 16.919C96.7045 16.9101 97.5563 17.0872 98.3416 17.4381C99.091 17.7776 99.7661 18.2616 100.328 18.8622C100.893 19.4622 101.337 20.1652 101.636 20.933C101.946 21.7359 102.101 22.5901 102.092 23.4505C102.096 24.296 101.94 25.1346 101.631 25.9216C101.337 26.6864 100.903 27.3897 100.352 27.9954C99.7766 28.6174 99.077 29.1115 98.2985 29.4453C97.5199 29.7791 96.6798 29.9452 95.8328 29.9328H95.8212ZM91.2416 23.4766C91.2298 24.3608 91.4413 25.2337 91.8565 26.0144C92.2447 26.7496 92.8174 27.3713 93.5183 27.8184C94.2056 28.2575 95.0057 28.4872 95.8212 28.4797C96.6374 28.487 97.4376 28.2529 98.1212 27.8068C98.8273 27.3461 99.4035 26.712 99.7947 25.9651C100.208 25.181 100.424 24.3079 100.424 23.4215C100.424 22.5351 100.208 21.6621 99.7947 20.8779C99.4011 20.1358 98.8252 19.506 98.1212 19.0478C97.4376 18.6018 96.6374 18.3677 95.8212 18.375C95.0043 18.3677 94.2048 18.6106 93.5299 19.071C92.8146 19.5596 92.2314 20.2175 91.8321 20.9862C91.4328 21.7549 91.2299 22.6105 91.2416 23.4766Z" fill="#222222"/>
<path d="M114.116 29.6921H112.469V22.6849C112.469 21.2076 112.251 20.1277 111.814 19.4452C111.377 18.7626 110.69 18.4223 109.754 18.4243C109.089 18.4279 108.433 18.5878 107.84 18.8912C107.209 19.2044 106.646 19.6379 106.181 20.1674C105.707 20.6976 105.354 21.3252 105.149 22.0062V29.6921H103.501V17.1133H104.992V19.9818C105.333 19.369 105.786 18.8251 106.326 18.3779C106.882 17.9162 107.513 17.5533 108.191 17.3047C108.882 17.0495 109.612 16.9189 110.349 16.919C110.961 16.902 111.568 17.0344 112.118 17.3047C112.598 17.5588 112.999 17.9388 113.278 18.404C113.589 18.9309 113.802 19.5096 113.908 20.1123C114.044 20.8478 114.109 21.5947 114.102 22.3426L114.116 29.6921Z" fill="#222222"/>
<path d="M121.727 29.9328C120.858 29.9416 119.998 29.7646 119.204 29.4136C118.443 29.0797 117.759 28.5953 117.191 27.9896C116.623 27.3832 116.175 26.6746 115.871 25.9013C115.552 25.0946 115.391 24.2339 115.398 23.3664C115.387 22.2403 115.667 21.1303 116.21 20.1442C116.739 19.1786 117.512 18.3693 118.452 17.7978C119.431 17.2082 120.556 16.9066 121.698 16.9277C122.848 16.9019 123.981 17.2124 124.958 17.821C125.877 18.4026 126.632 19.2105 127.15 20.1674C127.686 21.1447 127.962 22.2433 127.951 23.3577V23.7319C127.954 23.8291 127.946 23.9264 127.928 24.0219H117.121C117.186 24.8707 117.447 25.6928 117.884 26.4234C118.297 27.1065 118.871 27.6773 119.557 28.0853C120.241 28.4854 121.022 28.6892 121.814 28.674C122.629 28.6717 123.429 28.4546 124.134 28.0447C124.815 27.6803 125.356 27.1011 125.674 26.3973L127.104 26.783C126.828 27.403 126.423 27.9568 125.915 28.4072C125.367 28.9001 124.73 29.2831 124.038 29.5354C123.297 29.8034 122.515 29.9379 121.727 29.9328ZM117.072 22.8038H126.402C126.358 21.9554 126.104 21.1312 125.663 20.4052C125.252 19.7327 124.677 19.1757 123.992 18.7868C123.301 18.397 122.52 18.1969 121.727 18.2067C120.937 18.1958 120.159 18.396 119.473 18.7868C118.791 19.1815 118.219 19.7422 117.811 20.4168C117.376 21.1412 117.122 21.9601 117.072 22.8038Z" fill="#222222"/>
<path d="M134.593 29.9328C133.725 29.9413 132.866 29.7643 132.072 29.4137C131.313 29.079 130.63 28.5947 130.062 27.9896C129.495 27.3826 129.046 26.6742 128.74 25.9014C128.423 25.0941 128.264 24.2337 128.27 23.3665C128.259 22.2408 128.538 21.1311 129.079 20.1442C129.609 19.18 130.382 18.3711 131.321 17.7978C132.301 17.2087 133.427 16.9072 134.57 16.9277C135.72 16.9023 136.853 17.2128 137.83 17.821C138.749 18.4034 139.503 19.2111 140.022 20.1674C140.558 21.1448 140.833 22.2433 140.823 23.3578V23.7319C140.827 23.8293 140.818 23.9268 140.797 24.022H129.99C130.053 24.871 130.315 25.6935 130.753 26.4234C131.166 27.1065 131.74 27.6773 132.426 28.0853C133.102 28.4921 133.877 28.7048 134.665 28.7002C135.487 28.7014 136.295 28.4842 137.006 28.0708C137.687 27.7073 138.228 27.1278 138.543 26.4234L139.973 26.8092C139.699 27.4296 139.294 27.9836 138.787 28.4334C138.233 28.9188 137.591 29.293 136.896 29.5355C136.157 29.8024 135.378 29.9369 134.593 29.9328ZM129.935 22.8038H139.265C139.221 21.9554 138.967 21.1313 138.526 20.4052C138.114 19.7336 137.539 19.1769 136.855 18.7869C136.163 18.3967 135.381 18.1966 134.587 18.2068C133.798 18.1958 133.02 18.3961 132.333 18.7869C131.651 19.1806 131.08 19.7415 130.674 20.4168C130.237 21.1401 129.983 21.9597 129.935 22.8038Z" fill="#222222"/>
<path d="M146.153 29.9327C145.171 29.9416 144.196 29.7695 143.276 29.4252C142.392 29.0966 141.597 28.5651 140.956 27.8735L141.635 26.7134C142.256 27.3214 142.982 27.8126 143.778 28.1635C144.504 28.4643 145.283 28.6171 146.069 28.6131C146.908 28.6527 147.74 28.4514 148.468 28.033C148.759 27.8594 148.999 27.6106 149.161 27.3125C149.324 27.0145 149.403 26.6783 149.39 26.3392C149.406 26.1246 149.374 25.9092 149.296 25.7085C149.218 25.5078 149.097 25.327 148.941 25.1791C148.563 24.874 148.125 24.6526 147.656 24.5294C147.099 24.3612 146.433 24.1804 145.657 23.9871C144.908 23.7902 144.175 23.5361 143.465 23.2272C142.938 23.0136 142.478 22.6644 142.131 22.215C141.814 21.7431 141.657 21.1817 141.684 20.614C141.657 19.8871 141.874 19.1721 142.302 18.5837C142.742 18.024 143.33 17.5982 143.999 17.354C144.768 17.0629 145.586 16.9192 146.409 16.9306C147.287 16.9155 148.16 17.0721 148.978 17.3917C149.685 17.6619 150.316 18.0987 150.817 18.665L150.02 19.7816C149.583 19.2711 149.03 18.8731 148.407 18.6215C147.747 18.3627 147.042 18.2346 146.333 18.2444C145.834 18.2424 145.337 18.3118 144.857 18.4503C144.417 18.5659 144.016 18.7984 143.697 19.1232C143.383 19.4763 143.221 19.9392 143.247 20.411C143.224 20.7912 143.345 21.1663 143.587 21.4609C143.873 21.7456 144.221 21.9601 144.605 22.0873C145.057 22.2556 145.615 22.4354 146.278 22.6268C147.229 22.8859 148.061 23.1469 148.772 23.4099C149.394 23.6194 149.959 23.9698 150.423 24.4337C150.834 24.9235 151.042 25.5527 151.003 26.1913C151.025 26.7262 150.913 27.258 150.678 27.739C150.443 28.2199 150.092 28.635 149.657 28.9466C148.775 29.606 147.607 29.9347 146.153 29.9327Z" fill="#222222"/>
</g>
<defs>
<clipPath id="clip0_4223_72">
<rect width="151" height="41.176" fill="white"/>
</clipPath>
</defs>
</svg>
