<svg width="41" height="40" viewBox="0 0 41 40" fill="none" xmlns="http://www.w3.org/2000/svg">
<g clip-path="url(#clip0_4241_15091)">
<path d="M20.5 0C9.47167 0 0.5 8.97167 0.5 20C0.5 31.0283 9.47167 40 20.5 40C31.5283 40 40.5 31.0283 40.5 20C40.5 8.97167 31.5283 0 20.5 0ZM13.8333 35.2733V31.6667C13.8333 30.7467 14.5817 30 15.5 30H25.5C26.4183 30 27.1667 30.7467 27.1667 31.6667V35.2733C25.1233 36.1683 22.87 36.6667 20.5 36.6667C18.13 36.6667 15.8767 36.1683 13.8333 35.2733ZM30.5 33.325V31.6667C30.5 28.91 28.2567 26.6667 25.5 26.6667H15.5C12.7433 26.6667 10.5 28.91 10.5 31.6667V33.325C6.455 30.2817 3.83333 25.4417 3.83333 20C3.83333 10.81 11.31 3.33333 20.5 3.33333C29.69 3.33333 37.1667 10.81 37.1667 20C37.1667 25.44 34.545 30.2817 30.5 33.325ZM20.5 10C16.8233 10 13.8333 12.99 13.8333 16.6667C13.8333 20.3433 16.8233 23.3333 20.5 23.3333C24.1767 23.3333 27.1667 20.3433 27.1667 16.6667C27.1667 12.99 24.1767 10 20.5 10ZM20.5 20C18.6617 20 17.1667 18.505 17.1667 16.6667C17.1667 14.8283 18.6617 13.3333 20.5 13.3333C22.3383 13.3333 23.8333 14.8283 23.8333 16.6667C23.8333 18.505 22.3383 20 20.5 20Z" fill="white"/>
</g>
<defs>
<clipPath id="clip0_4241_15091">
<rect width="40" height="40" fill="white" transform="translate(0.5)"/>
</clipPath>
</defs>
</svg>
