<svg width="151" height="42" viewBox="0 0 151 42" fill="none" xmlns="http://www.w3.org/2000/svg">
<g clip-path="url(#clip0_4241_15013)">
<path d="M13.5299 18.2625C16.1457 18.2625 18.2662 16.142 18.2662 13.5263C18.2662 10.9105 16.1457 8.79004 13.5299 8.79004C10.9142 8.79004 8.7937 10.9105 8.7937 13.5263C8.7937 16.142 10.9142 18.2625 13.5299 18.2625Z" fill="#E93223"/>
<path d="M35.5639 18.2625C38.1796 18.2625 40.3001 16.142 40.3001 13.5263C40.3001 10.9105 38.1796 8.79004 35.5639 8.79004C32.9481 8.79004 30.8276 10.9105 30.8276 13.5263C30.8276 16.142 32.9481 18.2625 35.5639 18.2625Z" fill="#E93223"/>
<path d="M24.5456 37.5584C27.1613 37.5584 29.2818 35.4379 29.2818 32.8222C29.2818 30.2064 27.1613 28.0859 24.5456 28.0859C21.9298 28.0859 19.8093 30.2064 19.8093 32.8222C19.8093 35.4379 21.9298 37.5584 24.5456 37.5584Z" fill="#E93223"/>
<path d="M46.8403 13.6304C46.1019 13.4745 45.3318 13.6069 44.6879 14.0006C44.044 14.3942 43.5751 15.0193 43.3773 15.7477C42.8474 17.6358 41.651 19.2679 40.0097 20.3413C38.3685 21.4148 36.3938 21.8569 34.4515 21.5857C32.5092 21.3145 30.7311 20.3484 29.4467 18.8664C28.1622 17.3845 27.4586 15.4871 27.4661 13.526C27.4596 12.4608 27.6647 11.405 28.0695 10.4197C28.4743 9.43438 29.0707 8.53927 29.8241 7.78627C30.8043 6.80495 32.0194 6.09102 33.3538 5.71254C34.0821 5.51479 34.7072 5.04588 35.1009 4.40198C35.4946 3.75808 35.627 2.98796 35.471 2.24954C35.3833 1.86853 35.2195 1.5092 34.9893 1.19313C34.7592 0.877061 34.4675 0.610786 34.1318 0.410309C33.7962 0.209831 33.4234 0.0792888 33.036 0.0265289C32.6486 -0.0262311 32.2546 -0.000119862 31.8775 0.103293C30.4325 0.503724 29.0614 1.13441 27.8171 1.97111L27.7707 2.00301C26.809 2.67358 25.6622 3.02754 24.4899 3.01558C23.3176 3.00362 22.1782 2.62635 21.2304 1.9363L21.1086 1.85509C19.9064 1.07808 18.5916 0.491114 17.2105 0.114895C16.8352 0.0135589 16.4434 -0.0112946 16.0583 0.041811C15.6732 0.0949167 15.3027 0.224898 14.9688 0.424029C14.635 0.62316 14.3445 0.887378 14.1148 1.20098C13.8851 1.51458 13.7207 1.87116 13.6315 2.24954C13.4763 2.9879 13.609 3.75768 14.0026 4.40141C14.3962 5.04514 15.0208 5.51417 15.7488 5.71254C17.0842 6.09057 18.3004 6.80452 19.2814 7.78627C20.1629 8.66496 20.8306 9.73451 21.233 10.9123C21.6355 12.0901 21.7617 13.3447 21.6022 14.579C21.4426 15.8134 21.0014 16.9946 20.3127 18.0314C19.624 19.0681 18.7063 19.9327 17.6303 20.5583C16.5543 21.1839 15.3489 21.5539 14.1072 21.6395C12.8655 21.7252 11.6207 21.5243 10.469 21.0524C9.3173 20.5804 8.28948 19.8501 7.46494 18.9177C6.6404 17.9854 6.04121 16.8759 5.71363 15.6752C5.50979 14.9313 5.01881 14.299 4.3487 13.9171C3.6786 13.5353 2.88426 13.4353 2.14042 13.6391C1.39659 13.843 0.764201 14.334 0.382371 15.0041C0.000540818 15.6742 -0.0994518 16.4685 0.10439 17.2124C0.630262 19.125 1.55881 20.9033 2.82783 22.4279C4.09685 23.9525 5.67704 25.1883 7.46253 26.0526C8.50217 26.5401 9.36765 27.3342 9.94265 28.3281C10.5176 29.3221 10.7746 30.4682 10.679 31.6125C10.6442 32.0127 10.6268 32.4188 10.6268 32.8277C10.6276 35.2419 11.2552 37.6144 12.4482 39.7131C12.6443 40.058 12.9091 40.359 13.2262 40.5974C13.5433 40.8359 13.9059 41.0067 14.2917 41.0994C14.6774 41.1921 15.0781 41.2047 15.4689 41.1364C15.8597 41.068 16.2324 40.9202 16.5638 40.7021C17.1772 40.2802 17.6093 39.6429 17.7743 38.9169C17.9392 38.1909 17.825 37.4294 17.4542 36.7838C16.7638 35.5478 16.4085 34.1528 16.4236 32.7371C16.4386 31.3214 16.8235 29.9343 17.5401 28.7133C18.2567 27.4923 19.28 26.4798 20.5086 25.7763C21.7371 25.0728 23.1283 24.7026 24.544 24.7026C25.9598 24.7026 27.3509 25.0728 28.5795 25.7763C29.8081 26.4798 30.8314 27.4923 31.548 28.7133C32.2645 29.9343 32.6494 31.3214 32.6645 32.7371C32.6796 34.1528 32.3243 35.5478 31.6339 36.7838C31.2697 37.4175 31.1532 38.1637 31.3069 38.8782C31.4606 39.5928 31.8737 40.225 32.4663 40.6528C32.797 40.8829 33.172 41.0415 33.5675 41.1186C33.9629 41.1957 34.37 41.1896 34.7629 41.1007C35.1559 41.0117 35.526 40.8419 35.8496 40.602C36.1733 40.3621 36.4434 40.0574 36.6428 39.7073C37.8358 37.6086 38.4634 35.2361 38.4642 32.8219C38.4642 32.413 38.4468 32.007 38.412 31.6067C38.3178 30.4637 38.5751 29.3193 39.1494 28.3266C39.7237 27.334 40.5877 26.5405 41.6255 26.0526C43.0248 25.3764 44.2996 24.4684 45.396 23.3669C47.1057 21.661 48.343 19.5402 48.9866 17.2124C49.0882 16.8361 49.1129 16.4432 49.0593 16.0571C49.0057 15.671 48.8748 15.2997 48.6745 14.9654C48.4741 14.6311 48.2085 14.3405 47.8933 14.1112C47.5782 13.8818 47.2201 13.7183 46.8403 13.6304Z" fill="#E93223"/>
<path d="M65.794 29.933C64.9229 29.9435 64.0596 29.7675 63.262 29.4168C62.5012 29.0738 61.8175 28.5805 61.2521 27.9666C60.0915 26.7238 59.4493 25.0846 59.4568 23.3841C59.4429 22.2499 59.7184 21.1309 60.2573 20.1328C60.7759 19.1674 61.5455 18.3598 62.4847 17.7951C63.4815 17.2036 64.6236 16.9022 65.7824 16.925C66.8793 16.9046 67.9607 17.1855 68.909 17.7371C69.786 18.2484 70.4869 19.0141 70.9189 19.9327L69.3179 20.4344C68.9734 19.7995 68.4567 19.2747 67.8272 18.9205C67.1807 18.5554 66.4494 18.3673 65.707 18.3752C64.8893 18.3688 64.087 18.5973 63.3955 19.0336C62.6956 19.4712 62.1235 20.0854 61.7365 20.8144C61.3266 21.6105 61.1128 22.493 61.1128 23.3884C61.1128 24.2839 61.3266 25.1663 61.7365 25.9625C62.1319 26.7055 62.706 27.3384 63.4071 27.8042C64.0895 28.2563 64.8913 28.4946 65.7099 28.4887C66.2521 28.4904 66.7899 28.3921 67.2964 28.1986C67.7849 28.018 68.2369 27.7507 68.6306 27.4097C68.9781 27.1261 69.2419 26.7531 69.3933 26.3308L71.0175 26.8181C70.7763 27.4328 70.3926 27.9815 69.898 28.4191C69.3593 28.9046 68.7334 29.2835 68.0534 29.5357C67.3305 29.8035 66.565 29.9382 65.794 29.933Z" fill="white"/>
<path d="M77.5229 29.9326C76.6603 29.9419 75.8057 29.7658 75.017 29.4164C74.2649 29.0814 73.5882 28.598 73.0274 27.9952C72.4695 27.391 72.0298 26.6876 71.7309 25.9215C71.4245 25.1338 71.2691 24.2955 71.2727 23.4504C71.2661 22.5899 71.4216 21.7359 71.7309 20.9329C72.0311 20.165 72.4761 19.4619 73.0419 18.8621C73.6061 18.2586 74.2856 17.7744 75.0402 17.438C75.8297 17.0876 76.6852 16.9105 77.549 16.9188C78.4101 16.9091 79.263 17.0862 80.0491 17.438C80.7993 17.7774 81.4754 18.2613 82.0387 18.8621C82.6026 19.4628 83.0465 20.1656 83.3467 20.9329C83.6574 21.7355 83.8129 22.5898 83.805 23.4504C83.8102 24.2957 83.6547 25.1343 83.3467 25.9215C83.0478 26.6876 82.6081 27.391 82.0503 27.9952C81.475 28.6177 80.775 29.1119 79.9959 29.4457C79.2168 29.7796 78.3762 29.9455 77.5287 29.9326H77.5229ZM72.9432 23.4765C72.9325 24.3609 73.1449 25.2338 73.561 26.0143C73.9484 26.7501 74.5213 27.372 75.2229 27.8183C75.9093 28.257 76.7083 28.4867 77.5229 28.4796C78.34 28.4872 79.1412 28.2531 79.8257 27.8067C80.5319 27.346 81.108 26.7119 81.4992 25.965C81.9125 25.1808 82.1285 24.3078 82.1285 23.4214C82.1285 22.535 81.9125 21.6619 81.4992 20.8778C81.1057 20.1357 80.5298 19.5059 79.8257 19.0477C79.1412 18.6013 78.34 18.3672 77.5229 18.3748C76.7069 18.3676 75.9083 18.6105 75.2345 19.0709C74.5181 19.5585 73.9338 20.2162 73.534 20.9851C73.1341 21.7539 72.9311 22.61 72.9432 23.4765Z" fill="white"/>
<path d="M85.2698 12H86.9172V26.9193C86.9172 27.5535 87.0303 27.9683 87.2565 28.1636C87.4861 28.3582 87.7793 28.4615 88.0802 28.4536C88.373 28.4537 88.6649 28.4206 88.9503 28.355C89.2403 28.2912 89.4927 28.2274 89.7015 28.1636L89.9915 29.4948C89.6291 29.6411 89.2517 29.7471 88.8662 29.8109C88.4838 29.8852 88.0955 29.925 87.7061 29.9299C87.3784 29.953 87.0497 29.9051 86.7422 29.7896C86.4347 29.674 86.1558 29.4935 85.9246 29.2603C85.6933 29.0271 85.515 28.7467 85.402 28.4383C85.289 28.1299 85.2439 27.8007 85.2698 27.4733V12Z" fill="white"/>
<path d="M95.8212 29.9326C94.9781 29.9419 94.1423 29.7743 93.368 29.4406C92.5937 29.1069 91.8979 28.6145 91.3257 27.9951C90.7669 27.3916 90.3271 26.6881 90.0292 25.9214C89.7203 25.1344 89.5638 24.2958 89.5681 23.4503C89.5611 22.5895 89.7176 21.7353 90.0292 20.9328C90.3274 20.1646 90.7716 19.4613 91.3373 18.862C91.9021 18.2592 92.5815 17.775 93.3356 17.4379C94.1252 17.0878 94.9807 16.9108 95.8444 16.9188C96.7045 16.9099 97.5563 17.087 98.3416 17.4379C99.091 17.7774 99.7661 18.2614 100.328 18.862C100.893 19.462 101.337 20.165 101.636 20.9328C101.946 21.7356 102.101 22.5899 102.092 23.4503C102.096 24.2958 101.94 25.1344 101.631 25.9214C101.337 26.6862 100.903 27.3895 100.352 27.9951C99.7766 28.6172 99.077 29.1113 98.2985 29.4451C97.5199 29.7789 96.6798 29.945 95.8328 29.9326H95.8212ZM91.2416 23.4764C91.2298 24.3606 91.4413 25.2335 91.8565 26.0142C92.2447 26.7494 92.8174 27.3711 93.5183 27.8182C94.2056 28.2573 95.0057 28.487 95.8212 28.4795C96.6374 28.4867 97.4376 28.2527 98.1212 27.8066C98.8273 27.3459 99.4035 26.7118 99.7947 25.9649C100.208 25.1808 100.424 24.3077 100.424 23.4213C100.424 22.5349 100.208 21.6619 99.7947 20.8777C99.4011 20.1356 98.8252 19.5058 98.1212 19.0476C97.4376 18.6016 96.6374 18.3675 95.8212 18.3747C95.0043 18.3675 94.2048 18.6104 93.5299 19.0708C92.8146 19.5594 92.2314 20.2173 91.8321 20.986C91.4328 21.7547 91.2299 22.6103 91.2416 23.4764Z" fill="white"/>
<path d="M114.116 29.692H112.469V22.6848C112.469 21.2076 112.251 20.1277 111.814 19.4451C111.377 18.7626 110.69 18.4223 109.754 18.4242C109.089 18.4278 108.433 18.5878 107.84 18.8912C107.209 19.2043 106.646 19.6378 106.181 20.1673C105.707 20.6975 105.354 21.3252 105.149 22.0061V29.692H103.501V17.1133H104.992V19.9817C105.333 19.3689 105.786 18.825 106.326 18.3778C106.882 17.9162 107.513 17.5532 108.191 17.3047C108.882 17.0495 109.612 16.9189 110.349 16.9189C110.961 16.9019 111.568 17.0343 112.118 17.3047C112.598 17.5587 112.999 17.9388 113.278 18.4039C113.589 18.9308 113.802 19.5095 113.908 20.1122C114.044 20.8477 114.109 21.5946 114.102 22.3426L114.116 29.692Z" fill="white"/>
<path d="M121.727 29.9328C120.858 29.9417 119.998 29.7647 119.204 29.4137C118.443 29.0798 117.759 28.5953 117.191 27.9896C116.623 27.3832 116.175 26.6746 115.871 25.9014C115.552 25.0947 115.391 24.234 115.398 23.3665C115.387 22.2404 115.667 21.1304 116.21 20.1442C116.739 19.1787 117.512 18.3694 118.452 17.7978C119.431 17.2082 120.556 16.9066 121.698 16.9277C122.848 16.902 123.981 17.2125 124.958 17.8211C125.877 18.4026 126.632 19.2105 127.15 20.1674C127.686 21.1448 127.962 22.2433 127.951 23.3578V23.7319C127.954 23.8292 127.946 23.9264 127.928 24.022H117.121C117.186 24.8708 117.447 25.6929 117.884 26.4234C118.297 27.1065 118.871 27.6773 119.557 28.0853C120.241 28.4855 121.022 28.6892 121.814 28.6741C122.629 28.6718 123.429 28.4547 124.134 28.0447C124.815 27.6803 125.356 27.1012 125.674 26.3973L127.104 26.7831C126.828 27.4031 126.423 27.9568 125.915 28.4073C125.367 28.9002 124.73 29.2832 124.038 29.5355C123.297 29.8034 122.515 29.938 121.727 29.9328ZM117.072 22.8038H126.402C126.358 21.9554 126.104 21.1313 125.663 20.4052C125.252 19.7327 124.677 19.1758 123.992 18.7869C123.301 18.3971 122.52 18.197 121.727 18.2068C120.937 18.1958 120.159 18.3961 119.473 18.7869C118.791 19.1816 118.219 19.7423 117.811 20.4168C117.376 21.1412 117.122 21.9602 117.072 22.8038Z" fill="white"/>
<path d="M134.593 29.9328C133.725 29.9412 132.866 29.7642 132.072 29.4136C131.313 29.079 130.63 28.5946 130.062 27.9896C129.495 27.3826 129.046 26.6742 128.74 25.9013C128.423 25.0941 128.264 24.2336 128.27 23.3664C128.259 22.2407 128.538 21.1311 129.079 20.1442C129.609 19.1799 130.382 18.371 131.321 17.7978C132.301 17.2087 133.427 16.9072 134.57 16.9277C135.72 16.9023 136.853 17.2127 137.83 17.821C138.749 18.4034 139.503 19.2111 140.022 20.1674C140.558 21.1448 140.833 22.2433 140.823 23.3577V23.7319C140.827 23.8293 140.818 23.9268 140.797 24.0219H129.99C130.053 24.871 130.315 25.6934 130.753 26.4234C131.166 27.1065 131.74 27.6773 132.426 28.0853C133.102 28.4921 133.877 28.7048 134.665 28.7002C135.487 28.7014 136.295 28.4842 137.006 28.0708C137.687 27.7073 138.228 27.1278 138.543 26.4234L139.973 26.8091C139.699 27.4296 139.294 27.9836 138.787 28.4333C138.233 28.9188 137.591 29.293 136.896 29.5355C136.157 29.8024 135.378 29.9369 134.593 29.9328ZM129.935 22.8038H139.265C139.221 21.9554 138.967 21.1312 138.526 20.4052C138.114 19.7336 137.539 19.1768 136.855 18.7868C136.163 18.3967 135.381 18.1966 134.587 18.2068C133.798 18.1958 133.02 18.3961 132.333 18.7868C131.651 19.1805 131.08 19.7415 130.674 20.4168C130.237 21.14 129.983 21.9596 129.935 22.8038Z" fill="white"/>
<path d="M146.153 29.9329C145.171 29.9417 144.196 29.7696 143.276 29.4253C142.392 29.0967 141.597 28.5652 140.956 27.8736L141.635 26.7135C142.256 27.3215 142.982 27.8127 143.778 28.1637C144.504 28.4644 145.283 28.6172 146.069 28.6132C146.908 28.6528 147.74 28.4515 148.468 28.0332C148.759 27.8595 148.999 27.6107 149.161 27.3127C149.324 27.0147 149.403 26.6785 149.39 26.3394C149.406 26.1247 149.374 25.9093 149.296 25.7086C149.218 25.508 149.097 25.3271 148.941 25.1792C148.563 24.8742 148.125 24.6527 147.656 24.5296C147.099 24.3613 146.433 24.1805 145.657 23.9872C144.908 23.7903 144.175 23.5362 143.465 23.2273C142.938 23.0137 142.478 22.6645 142.131 22.2151C141.814 21.7432 141.657 21.1819 141.684 20.6141C141.657 19.8873 141.874 19.1723 142.302 18.5839C142.742 18.0241 143.33 17.5983 143.999 17.3541C144.768 17.063 145.586 16.9194 146.409 16.9307C147.287 16.9156 148.16 17.0723 148.978 17.3918C149.685 17.662 150.316 18.0988 150.817 18.6651L150.02 19.7817C149.583 19.2712 149.03 18.8733 148.407 18.6216C147.747 18.3628 147.042 18.2347 146.333 18.2445C145.834 18.2426 145.337 18.3119 144.857 18.4505C144.417 18.566 144.016 18.7985 143.697 19.1233C143.383 19.4764 143.221 19.9393 143.247 20.4111C143.224 20.7914 143.345 21.1665 143.587 21.461C143.873 21.7458 144.221 21.9602 144.605 22.0875C145.057 22.2557 145.615 22.4355 146.278 22.6269C147.229 22.886 148.061 23.1471 148.772 23.41C149.394 23.6195 149.959 23.9699 150.423 24.4338C150.834 24.9236 151.042 25.5529 151.003 26.1914C151.025 26.7263 150.913 27.2581 150.678 27.7391C150.443 28.2201 150.092 28.6351 149.657 28.9468C148.775 29.6061 147.607 29.9348 146.153 29.9329Z" fill="white"/>
</g>
<defs>
<clipPath id="clip0_4241_15013">
<rect width="151" height="41.176" fill="white"/>
</clipPath>
</defs>
</svg>
