<svg width="41" height="40" viewBox="0 0 41 40" fill="none" xmlns="http://www.w3.org/2000/svg">
<g clip-path="url(#clip0_4241_15093)">
<path d="M39.655 18.3615C38.8433 17.2715 37.5983 16.6449 36.2383 16.6449H35.5V13.3332C35.5 8.73821 31.7617 4.99988 27.1667 4.99988H18.74C18.4833 4.99988 18.2233 4.93821 17.995 4.82488L12.7367 2.19488C12.0467 1.84988 11.2733 1.66821 10.5 1.66821H7.16667C3.49 1.66655 0.5 4.65655 0.5 8.33321V29.9999C0.5 34.5949 4.23833 38.3332 8.83333 38.3332H29.7633C33.4733 38.3332 36.68 35.9465 37.7667 32.3215L40.32 22.1282C40.71 20.8249 40.4667 19.4532 39.655 18.3615ZM3.83333 29.9999V8.33321C3.83333 6.49488 5.32833 4.99988 7.16667 4.99988H10.5C10.7567 4.99988 11.0167 5.06155 11.245 5.17488L16.5033 7.80488C17.1933 8.14988 17.9667 8.33155 18.74 8.33155H27.1667C29.9233 8.33155 32.1667 10.5749 32.1667 13.3315V16.6432H14.8583C12.025 16.6432 9.495 18.4415 8.54333 21.1765L4.89333 33.0732C4.23 32.2249 3.83333 31.1582 3.83333 29.9999ZM37.1067 21.2449L34.5533 31.4365C33.9133 33.5682 31.9883 34.9999 29.7633 34.9999H8.83333C8.48667 34.9999 8.14833 34.9649 7.82167 34.8965L11.7117 22.2149C12.1767 20.8765 13.4433 19.9782 14.86 19.9782H36.24C36.6433 19.9782 36.8783 20.2115 36.9817 20.3515C37.085 20.4915 37.2417 20.7832 37.1067 21.2449Z" fill="white"/>
</g>
<defs>
<clipPath id="clip0_4241_15093">
<rect width="40" height="40" fill="white" transform="translate(0.5)"/>
</clipPath>
</defs>
</svg>
