<svg width="41" height="40" viewBox="0 0 41 40" fill="none" xmlns="http://www.w3.org/2000/svg">
<g clip-path="url(#clip0_4241_15097)">
<path d="M22.1667 18.3333H35.5C38.2567 18.3333 40.5 16.09 40.5 13.3333V8.33333C40.5 5.57667 38.2567 3.33333 35.5 3.33333H31.19L28.8333 0.976667C28.2033 0.346667 27.3667 0 26.4767 0H22.1667C19.41 0 17.1667 2.24333 17.1667 5V8.33333H3.83333V1.66667C3.83333 0.745 3.08667 0 2.16667 0C1.24667 0 0.5 0.745 0.5 1.66667V25C0.5 29.595 4.23833 33.3333 8.83333 33.3333H17.1667V35C17.1667 37.7567 19.41 40 22.1667 40H35.5C38.2567 40 40.5 37.7567 40.5 35V30C40.5 27.2433 38.2567 25 35.5 25H31.19L28.8333 22.6433C28.2033 22.0133 27.3667 21.6667 26.4767 21.6667H22.1667C19.41 21.6667 17.1667 23.91 17.1667 26.6667V30H8.83333C6.07667 30 3.83333 27.7567 3.83333 25V11.6667H17.1667V13.3333C17.1667 16.09 19.41 18.3333 22.1667 18.3333ZM20.5 26.6667C20.5 25.7467 21.2483 25 22.1667 25H26.4767L28.8333 27.3567C29.4633 27.9867 30.3 28.3333 31.19 28.3333H35.5C36.4183 28.3333 37.1667 29.08 37.1667 30V35C37.1667 35.92 36.4183 36.6667 35.5 36.6667H22.1667C21.2483 36.6667 20.5 35.92 20.5 35V26.6667ZM20.5 5C20.5 4.08 21.2483 3.33333 22.1667 3.33333H26.4767L28.8333 5.69C29.4633 6.32 30.3 6.66667 31.19 6.66667H35.5C36.4183 6.66667 37.1667 7.41333 37.1667 8.33333V13.3333C37.1667 14.2533 36.4183 15 35.5 15H22.1667C21.2483 15 20.5 14.2533 20.5 13.3333V5Z" fill="white"/>
</g>
<defs>
<clipPath id="clip0_4241_15097">
<rect width="40" height="40" fill="white" transform="translate(0.5)"/>
</clipPath>
</defs>
</svg>
