<svg width="138" height="90" viewBox="0 0 138 90" fill="none" xmlns="http://www.w3.org/2000/svg">
<path d="M6.37741 35.8241C6.04659 41.077 5.27699 46.3425 5.08507 51.5978C5.05671 52.3743 4.84917 53.2849 5.84512 53.0466C8.87298 52.3223 11.8703 50.9638 14.7323 49.7722C18.7583 48.096 22.7202 46.2361 26.5286 44.1091C27.7873 43.4061 29.2443 42.8063 30.295 41.8432" stroke="white" stroke-width="2" stroke-linecap="round"/>
<path d="M13.7329 32.9438L24.7385 71.4702" stroke="white" stroke-width="2" stroke-linecap="round"/>
<path d="M39.9144 25.0752C41.183 29.516 42.2428 33.9847 43.1886 38.5059C43.4056 39.5431 43.5006 42.5462 44.2514 43.4381C44.8106 44.1024 48.3295 42.3113 48.7264 42.1381C55.7173 39.0874 62.0054 34.0782 67.9756 29.3914C68.785 28.756 71.5513 27.1833 71.7535 26.1053" stroke="white" stroke-width="2" stroke-linecap="round"/>
<path d="M51.7449 20.1379L62.1334 56.5039" stroke="white" stroke-width="2" stroke-linecap="round"/>
<path d="M77.3089 15.5612C83.1088 13.9044 88.9859 11.754 94.8946 10.6241C100.098 9.62907 102.39 14.2264 103.073 18.8029C103.896 24.3242 99.9578 30.5985 96.3452 34.4849C94.52 36.4484 92.1048 37.4271 89.6012 38.1423C87.9189 38.6229 86.2569 39.0977 89.1211 38.2795C95.4123 36.4823 101.612 34.6444 108.09 33.6396C110.765 33.2246 113.598 31.9566 116.297 32.074" stroke="white" stroke-width="2" stroke-linecap="round"/>
<path d="M34.5637 52.6963L46.0856 49.4049" stroke="white" stroke-width="2" stroke-linecap="round"/>
<path d="M80.0342 34.6441C80.1216 33.5603 85.3486 32.7365 86.4124 32.4326" stroke="white" stroke-width="2" stroke-linecap="round"/>
<path d="M39.1247 82.9275C38.5467 82.554 39.3223 82.498 39.742 82.3618C44.1269 80.938 48.3257 79.084 52.4584 77.0415C72.9317 66.9236 92.3589 54.8143 113.143 45.2967C119.125 42.5577 125.288 40.3745 131.364 37.8849C138.944 34.7785 115.714 42.7856 108.091 45.7879C92.8847 51.7773 77.7155 57.9784 62.712 64.463C60.6754 65.3432 54.5977 67.9925 56.731 67.3831C60.2902 66.3664 63.9201 63.1929 66.9185 61.1627C70.2233 58.9249 73.4272 56.4195 76.9832 54.5878" stroke="white" stroke-width="2" stroke-linecap="round"/>
</svg>
