<svg width="1440" height="963" viewBox="0 0 1440 963" fill="none" xmlns="http://www.w3.org/2000/svg">
<line x1="119.5" y1="963" x2="119.5" y2="1" stroke="#CCCCCC" stroke-opacity="0.8"/>
<line x1="239.5" y1="963" x2="239.5" y2="1" stroke="#CCCCCC" stroke-opacity="0.8"/>
<line x1="359.5" y1="963" x2="359.5" y2="1" stroke="#CCCCCC" stroke-opacity="0.2"/>
<line x1="479.5" y1="963" x2="479.5" y2="1" stroke="#CCCCCC" stroke-opacity="0.2"/>
<line x1="599.5" y1="963" x2="599.5" y2="1" stroke="#CCCCCC" stroke-opacity="0.2"/>
<line x1="719.5" y1="963" x2="719.5" y2="1" stroke="#CCCCCC" stroke-opacity="0.2"/>
<line x1="839.5" y1="963" x2="839.5" y2="1" stroke="#CCCCCC" stroke-opacity="0.2"/>
<line x1="959.5" y1="963" x2="959.5" y2="1" stroke="#CCCCCC" stroke-opacity="0.2"/>
<line x1="1079.5" y1="963" x2="1079.5" y2="1" stroke="#CCCCCC" stroke-opacity="0.2"/>
<line x1="1199.5" y1="963" x2="1199.5" y2="1" stroke="#CCCCCC" stroke-opacity="0.8"/>
<line x1="1319.5" y1="963" x2="1319.5" y2="1" stroke="#CCCCCC" stroke-opacity="0.8"/>
<line x1="1439.5" y1="963" x2="1439.5" y2="1" stroke="#CCCCCC" stroke-opacity="0.8"/>
<line y1="0.5" x2="1440" y2="0.5" stroke="#CCCCCC" stroke-opacity="0.8"/>
<line y1="160.833" x2="1440" y2="160.833" stroke="#CCCCCC" stroke-opacity="0.4"/>
<line y1="321.167" x2="1440" y2="321.167" stroke="#CCCCCC" stroke-opacity="0.4"/>
<line y1="481.5" x2="1440" y2="481.5" stroke="#CCCCCC" stroke-opacity="0.4"/>
<line y1="641.833" x2="1440" y2="641.833" stroke="#CCCCCC" stroke-opacity="0.4"/>
<line y1="802.167" x2="1440" y2="802.167" stroke="#CCCCCC" stroke-opacity="0.4"/>
<line y1="962.5" x2="1440" y2="962.5" stroke="#CCCCCC" stroke-opacity="0.8"/>
</svg>
