<svg width="137" height="37" viewBox="0 0 137 37" fill="none" xmlns="http://www.w3.org/2000/svg">
<path opacity="0.25" fill-rule="evenodd" clip-rule="evenodd" d="M118.5 35.4376C128.165 35.4376 136 27.7516 136 18.2705C136 8.78945 128.165 1.10352 118.5 1.10352C108.835 1.10352 101 8.78945 101 18.2705C101 27.7516 108.835 35.4376 118.5 35.4376Z" stroke="white" stroke-width="1.5"/>
<path d="M124.22 15.0966C124.139 15.0065 124.008 14.9839 123.901 15.0394C123.834 15.0739 123.708 15.1192 123.559 15.164C123.747 14.9116 123.899 14.6291 123.965 14.3752C123.994 14.2657 123.952 14.1504 123.86 14.0851C123.768 14.0204 123.646 14.0204 123.554 14.0851C123.409 14.187 122.71 14.4933 122.268 14.5925C121.27 13.7099 120.107 13.6182 118.899 14.3299C117.917 14.9084 117.703 16.0848 117.745 16.8019C115.497 16.5835 114.1 15.3856 113.313 14.3941C113.258 14.3245 113.169 14.2878 113.086 14.2932C112.999 14.2997 112.919 14.3488 112.875 14.4248C112.503 15.0583 112.4 15.7586 112.577 16.4504C112.675 16.8278 112.845 17.1604 113.042 17.43C112.947 17.3831 112.856 17.3243 112.77 17.2543C112.691 17.1885 112.58 17.1761 112.487 17.2197C112.394 17.2645 112.334 17.3594 112.334 17.4634C112.334 18.6512 113.071 19.4437 113.758 19.8578C113.647 19.8443 113.531 19.8195 113.414 19.7834C113.314 19.7527 113.205 19.7834 113.135 19.8632C113.066 19.9425 113.049 20.0557 113.093 20.1522C113.479 21.0143 114.211 21.6074 115.117 21.8225C114.326 22.291 113.267 22.5207 112.298 22.408C112.172 22.3902 112.053 22.4705 112.013 22.5924C111.974 22.7142 112.025 22.8479 112.136 22.9105C113.607 23.7435 114.936 24.0411 116.085 24.0411C117.757 24.0411 119.047 23.4114 119.833 22.8846C121.95 21.4666 123.27 18.9208 123.086 16.6429C123.426 16.39 123.933 15.9231 124.248 15.4211C124.313 15.3198 124.301 15.1861 124.22 15.0966Z" fill="white"/>
<path opacity="0.25" fill-rule="evenodd" clip-rule="evenodd" d="M68.5 35.4376C78.165 35.4376 86 27.7516 86 18.2705C86 8.78945 78.165 1.10352 68.5 1.10352C58.835 1.10352 51 8.78945 51 18.2705C51 27.7516 58.835 35.4376 68.5 35.4376Z" stroke="white" stroke-width="1.5"/>
<path d="M70.0932 13.8764H71.7016C71.8495 13.8764 71.9696 13.7654 71.9696 13.6286V12.1418C71.9696 12.0051 71.8495 11.894 71.7016 11.894H70.0932C68.4677 11.894 67.1445 13.1166 67.1445 14.6198V16.3543H65.2681C65.1201 16.3543 65 16.4653 65 16.6021V18.0888C65 18.2256 65.1201 18.3366 65.2681 18.3366H67.1445V23.5402C67.1445 23.677 67.2646 23.788 67.4126 23.788H69.0209C69.1689 23.788 69.289 23.677 69.289 23.5402V18.3366H71.1655C71.2807 18.3366 71.3831 18.2682 71.4201 18.1671L71.9562 16.6804C71.9836 16.6051 71.9696 16.5218 71.9192 16.4569C71.8683 16.3925 71.7879 16.3543 71.7016 16.3543H69.289V14.6198C69.289 14.2099 69.6498 13.8764 70.0932 13.8764Z" fill="white"/>
<path opacity="0.25" fill-rule="evenodd" clip-rule="evenodd" d="M18.5 35.4376C28.165 35.4376 36 27.7516 36 18.2705C36 8.78945 28.165 1.10352 18.5 1.10352C8.83502 1.10352 1 8.78945 1 18.2705C1 27.7516 8.83502 35.4376 18.5 35.4376Z" stroke="white" stroke-width="1.5"/>
<path d="M14.4835 14.8047C15.3029 14.8047 15.9671 14.1531 15.9671 13.3494C15.9671 12.5456 15.3029 11.894 14.4835 11.894C13.6642 11.894 13 12.5456 13 13.3494C13 14.1531 13.6642 14.8047 14.4835 14.8047Z" fill="white"/>
<path d="M15.7198 15.7769H13.2473C13.1108 15.7769 13 15.8855 13 16.0194V23.296C13 23.4299 13.1108 23.5386 13.2473 23.5386H15.7198C15.8563 23.5386 15.9671 23.4299 15.9671 23.296V16.0194C15.9671 15.8855 15.8563 15.7769 15.7198 15.7769Z" fill="white"/>
<path d="M23.0883 15.3731C22.0315 15.018 20.7097 15.3299 19.917 15.8892C19.8898 15.7849 19.7928 15.7073 19.6776 15.7073H17.205C17.0685 15.7073 16.9578 15.816 16.9578 15.9499V23.2265C16.9578 23.3604 17.0685 23.469 17.205 23.469H19.6776C19.8141 23.469 19.9249 23.3604 19.9249 23.2265V17.997C20.3244 17.6594 20.8392 17.5517 21.2606 17.7273C21.669 17.8966 21.9029 18.3099 21.9029 18.8605V23.2265C21.9029 23.3604 22.0137 23.469 22.1502 23.469H24.6228C24.7593 23.469 24.87 23.3604 24.87 23.2265V18.372C24.8418 16.3787 23.8859 15.6408 23.0883 15.3731Z" fill="white"/>
</svg>
