<svg width="259" height="29" viewBox="0 0 259 29" fill="none" xmlns="http://www.w3.org/2000/svg">
<path d="M2.14773 10.5C1.21447 11.5666 4.95271 11 6.36995 11C26.3699 11 46.3699 11 66.3699 11C123.564 11 180.759 11 237.953 11C244.259 11 263.176 11 256.87 11C249.598 11 242.321 11.7541 235.092 12.4444C203.888 15.4243 172.681 18.0114 141.426 20.3889C117.046 22.2434 92.5126 23.8165 68.2033 26.5C66.6833 26.6678 64.5618 27.3173 63.0088 26.9722C62.4935 26.8577 63.9659 26.5038 64.4811 26.3889C68.7679 25.4328 73.0649 24.563 77.3422 23.5556C103.43 17.411 129.613 11.7033 155.703 5.58333C160.876 4.37007 166.631 3.67222 171.648 2" stroke="#E93223" stroke-width="3" stroke-linecap="round"/>
</svg>
