<svg width="41" height="40" viewBox="0 0 41 40" fill="none" xmlns="http://www.w3.org/2000/svg">
<g clip-path="url(#clip0_4241_15095)">
<path d="M38.6717 10.8965C37.545 10.3332 36.2167 10.4515 35.21 11.2099C35.145 11.2582 35.0833 11.3132 35.0267 11.3699L32.0983 14.3249C31.7467 10.0499 28.1967 6.66821 23.8333 6.66821H8.83333C4.23833 6.66655 0.5 10.4049 0.5 14.9999V24.9999C0.5 29.5949 4.23833 33.3332 8.83333 33.3332H23.8333C28.215 33.3332 31.78 29.9215 32.1033 25.6215L35.03 28.5449C35.0867 28.5999 35.145 28.6499 35.2083 28.6982C35.795 29.1382 36.4883 29.3615 37.1883 29.3615C37.6933 29.3615 38.1983 29.2465 38.6717 29.0099C39.8 28.4465 40.5 27.3115 40.5 26.0532V13.8565C40.5 12.5949 39.8 11.4599 38.6717 10.8965ZM23.8333 29.9999H8.83333C6.07667 29.9999 3.83333 27.7565 3.83333 24.9999V14.9999C3.83333 12.2432 6.07667 9.99988 8.83333 9.99988H23.8333C26.59 9.99988 28.8333 12.2432 28.8333 14.9999V24.9999C28.8333 27.7565 26.59 29.9999 23.8333 29.9999ZM32.1667 20.9715V18.9899L37.1667 13.9432L37.2083 26.0065L32.1667 20.9699V20.9715Z" fill="white"/>
</g>
<defs>
<clipPath id="clip0_4241_15095">
<rect width="40" height="40" fill="white" transform="translate(0.5)"/>
</clipPath>
</defs>
</svg>
